# xmcd
#
# Track frame offsets:
#	150
#	20031
#	36542
#	53115
#	71555
#	90182
#	108810
#	123994
#	145555
#	163677
#
# Disc length: 2445 seconds
#
# Revision: 0
# Processed by: cddbd v1.5.2PL0 Copyright (c) Steve Scherf et al.
# Submitted via: EZCDAudioConverter 1.0.7.1
#
DISCID=7e098b0a
DTITLE=Phil Perry - Say Yes
DYEAR=2013
DGENRE=
TTITLE0=You Send Me
TTITLE1=Where Is The Love (feat Chante Moore)
TTITLE2=Tonight Just Me And You (feat Najee)
TTITLE3=You Belong To Me
TTITLE4=Say Yes
TTITLE5=Just A Little Bit
TTITLE6=The Long And Winding Road
TTITLE7=Peel The Veil
TTITLE8=Can't Hide Love (feat Najee)
TTITLE9=Bridge Over Troubled Water
EXTD=
EXTT0=
EXTT1=
EXTT2=
EXTT3=
EXTT4=
EXTT5=
EXTT6=
EXTT7=
EXTT8=
EXTT9=
PLAYORDER=
